<?xml version="1.0" encoding="UTF-8"?>
<svg version="1.1" xmlns="http://www.w3.org/2000/svg" width="500" height="500">
<path d="M0 0 C165 0 330 0 500 0 C500 165 500 330 500 500 C335 500 170 500 0 500 C0 335 0 170 0 0 Z " fill="#FCF4E1" transform="translate(0,0)"/>
<path d="M0 0 C4.46449429 1.00409109 8.95239453 1.56702888 13.48828125 2.13769531 C23.66256417 3.53208405 32.24548926 7.65096188 41.29296875 12.35253906 C43.7534463 13.52825202 45.78690366 14.18860677 48.42578125 14.76269531 C61.64403824 18.55645487 76.44377246 28.52243427 85.73828125 38.45019531 C90.21311331 43.17673668 95.54399712 46.64917339 100.94775391 50.22460938 C106.74220596 54.14217144 111.54004229 58.34851232 114.55078125 64.76269531 C116.0774544 67.63284083 117.01461847 68.57632273 119.48828125 70.51269531 C123.05426897 73.37144121 124.7024815 76.33827359 126.74609375 80.37207031 C128.22178935 82.8849691 129.88819175 84.68546399 131.92578125 86.76269531 C148.44618788 104.73987326 155.50650277 135.20435114 161.36328125 158.38769531 C161.62724701 159.42361816 161.62724701 159.42361816 161.89654541 160.48046875 C164.43412767 170.55301304 166.02291311 180.25003343 165.98046875 190.66894531 C165.99175003 194.92916677 166.98096938 198.59985384 168.11328125 202.70019531 C171.13060798 219.66554185 171.13060798 219.66554185 168.11328125 225.70019531 C167.88174915 228.8387416 167.71918244 231.97005283 167.59570312 235.11425781 C167.39915028 238.88213877 166.79188102 241.38312166 165.11328125 244.70019531 C164.96590433 246.90518071 164.89216643 249.115479 164.86328125 251.32519531 C163.89613699 272.22881597 152.19724194 294.01169469 142.23828125 311.95019531 C141.89369873 312.57490723 141.54911621 313.19961914 141.1940918 313.84326172 C138.92752215 317.7630746 136.40196415 320.65214775 133.11328125 323.70019531 C133.69925828 319.28473462 135.49361577 315.9393845 137.67578125 312.13769531 C142.35510677 303.7087116 145.80007336 294.87431826 149.2512207 285.88916016 C150.03833858 283.89049153 150.87321483 281.92389737 151.73828125 279.95800781 C152.98222318 277.01071358 153.96121429 274.15804966 154.80078125 271.07519531 C155.05214844 270.17542969 155.30351562 269.27566406 155.5625 268.34863281 C156.10966869 265.71756636 156.21481194 263.37867163 156.11328125 260.70019531 C153.77158045 263.04189611 153.71731848 264.0000755 153.19921875 267.19628906 C152.20380944 272.59730623 150.59802011 277.6043248 148.73828125 282.76269531 C148.30128906 284.01276367 148.30128906 284.01276367 147.85546875 285.28808594 C142.34063549 300.82878932 142.34063549 300.82878932 137.11328125 305.70019531 C135.67980405 307.99543215 134.31896471 310.2854407 132.98828125 312.63769531 C121.12033002 332.95803997 104.2784763 350.71033835 87.73828125 367.26269531 C86.86945313 368.14376953 86.000625 369.02484375 85.10546875 369.93261719 C79.84079379 375.20897412 74.39670834 380.05744872 68.57421875 384.71020508 C66.58141273 386.32164971 64.68471796 387.96517583 62.8125 389.71191406 C51.33445416 400.10504612 37.01890382 405.79706356 22.97250366 411.88986206 C21.07075641 412.71872956 19.17544888 413.56119765 17.28051758 414.40551758 C16.0426516 414.95074677 14.80462052 415.49560131 13.56640625 416.04003906 C12.47360352 416.52335693 11.38080078 417.0066748 10.25488281 417.50463867 C6.20054323 419.04754363 2.25389181 419.71576026 -2.03125 420.27050781 C-4.89332312 420.70118913 -7.49729655 421.41520822 -10.26171875 422.26269531 C-23.58933227 426.00576975 -38.17022252 424.82129994 -51.88671875 424.70019531 C-49.39165913 422.2051357 -48.21342987 422.34071155 -44.76171875 422.07519531 C-43.39660156 421.96304688 -43.39660156 421.96304688 -42.00390625 421.84863281 C-41.30523437 421.79964844 -40.6065625 421.75066406 -39.88671875 421.70019531 C-41.06363281 421.68037598 -42.24054688 421.66055664 -43.453125 421.64013672 C-82.90256767 420.95344493 -82.90256767 420.95344493 -96.94921875 419.76269531 C-97.84189453 419.68809082 -98.73457031 419.61348633 -99.65429688 419.53662109 C-108.90888599 418.65890696 -117.5559325 416.72161006 -126.26171875 413.46972656 C-127.11169434 413.1562175 -127.96166992 412.84270844 -128.83740234 412.5196991 C-130.62029249 411.85882027 -132.40169676 411.19391994 -134.18164062 410.52514648 C-136.87454895 409.5172502 -139.57536406 408.53307966 -142.27734375 407.54980469 C-151.37431759 404.18319318 -159.2042001 400.74563405 -166.88671875 394.70019531 C-168.86813649 393.54278063 -170.86501661 392.41071152 -172.88671875 391.32519531 C-178.99005967 387.83533627 -183.81422794 383.52378217 -188.88671875 378.70019531 C-190.27627506 377.48464877 -191.67172647 376.27579331 -193.07421875 375.07519531 C-196.35772428 372.22460633 -199.4240158 369.21267326 -202.44140625 366.08300781 C-203.85781652 364.59165046 -203.85781652 364.59165046 -205.88671875 363.70019531 C-205.55671875 363.04019531 -205.22671875 362.38019531 -204.88671875 361.70019531 C-202.49006035 363.4907668 -200.09431132 365.28253107 -197.69921875 367.07519531 C-196.97105957 367.61958252 -196.24290039 368.16396973 -195.49267578 368.72485352 C-191.56919815 371.66467579 -187.67578909 374.63511498 -183.82177734 377.6652832 C-174.71183673 384.80354183 -165.09426635 392.33793103 -153.88671875 395.70019531 C-153.55671875 394.71019531 -153.22671875 393.72019531 -152.88671875 392.70019531 C-153.95599609 392.31154297 -153.95599609 392.31154297 -155.046875 391.91503906 C-181.869832 380.44056915 -208.64788314 351.15304548 -225.88671875 328.70019531 C-226.85311876 327.51881297 -227.82348046 326.34066498 -228.796875 325.16503906 C-241.32433683 309.97112075 -251.23873636 294.02494795 -255.1484375 274.52441406 C-256.05984802 271.03790715 -257.57958118 268.5867786 -259.61328125 265.65332031 C-263.97152049 258.9689043 -265.5128833 252.58986866 -264.88671875 244.70019531 C-263.88671875 243.70019531 -263.88671875 243.70019531 -261.32421875 243.63769531 C-260.51984375 243.65832031 -259.71546875 243.67894531 -258.88671875 243.70019531 C-258.7165625 244.22750244 -258.54640625 244.75480957 -258.37109375 245.2980957 C-255.34251417 254.5761412 -252.24776212 263.69783818 -247.63671875 272.32519531 C-247.30800781 272.94531494 -246.97929687 273.56543457 -246.640625 274.2043457 C-244.95127485 277.24474502 -243.84059207 278.73094643 -240.88671875 280.70019531 C-241.16386719 279.53101563 -241.44101563 278.36183594 -241.7265625 277.15722656 C-242.09249276 275.60906008 -242.45837568 274.0608824 -242.82421875 272.51269531 C-243.00662109 271.74376953 -243.18902344 270.97484375 -243.37695312 270.18261719 C-244.27791988 266.3657944 -245.15309872 262.55363106 -245.88671875 258.70019531 C-234.09115571 264.7618041 -228.80480942 281.70904326 -223.4921875 293.19238281 C-220.7170416 299.14496849 -217.95073201 304.52986734 -213.88671875 309.70019531 C-215.32211664 306.49091749 -216.7604148 303.28294738 -218.19921875 300.07519531 C-218.80540039 298.71974609 -218.80540039 298.71974609 -219.42382812 297.33691406 C-221.11188586 293.57652529 -222.80983428 289.85128418 -224.6796875 286.17675781 C-225.88671875 283.70019531 -225.88671875 283.70019531 -225.88671875 281.70019531 C-225.22671875 281.70019531 -224.56671875 281.70019531 -223.88671875 281.70019531 C-224.87671875 279.39019531 -225.86671875 277.08019531 -226.88671875 274.70019531 C-225.89671875 274.70019531 -224.90671875 274.70019531 -223.88671875 274.70019531 C-223.39042969 275.90933594 -222.89414063 277.11847656 -222.3828125 278.36425781 C-202.49490866 326.47728803 -167.70760155 365.41247621 -119.2109375 385.93847656 C-108.36798588 390.78003991 -108.36798588 390.78003991 -96.88671875 392.70019531 C-97.90040527 392.36024536 -97.90040527 392.36024536 -98.93457031 392.01342773 C-102.00457157 390.97910835 -105.07062474 389.93353741 -108.13671875 388.88769531 C-109.20019531 388.53126953 -110.26367188 388.17484375 -111.359375 387.80761719 C-112.89658203 387.28071289 -112.89658203 387.28071289 -114.46484375 386.74316406 C-115.4074707 386.42371826 -116.35009766 386.10427246 -117.32128906 385.77514648 C-119.87336297 384.70579157 -121.76153651 383.45587571 -123.88671875 381.70019531 C-123.22671875 381.04019531 -122.56671875 380.38019531 -121.88671875 379.70019531 C-118.50525356 380.1063539 -115.37191388 381.12889686 -112.15625 382.22363281 C-111.27001953 382.52269531 -110.38378906 382.82175781 -109.47070312 383.12988281 C-108.55611328 383.44183594 -107.64152344 383.75378906 -106.69921875 384.07519531 C-104.89375225 384.68871597 -103.08776316 385.30070093 -101.28125 385.91113281 C-100.08786011 386.3179126 -100.08786011 386.3179126 -98.87036133 386.73291016 C-94.56452299 388.12884596 -90.22568565 389.41153895 -85.88671875 390.70019531 C-85.84040878 378.5132165 -85.80485632 366.32625858 -85.78309441 354.13920975 C-85.77265058 348.48047023 -85.75848037 342.82179084 -85.73583984 337.16308594 C-85.71413294 331.70365557 -85.70215464 326.24428311 -85.69696426 320.78481293 C-85.69326465 318.70037677 -85.68604037 316.61594384 -85.67525864 314.53153229 C-85.66077243 311.61535252 -85.65873962 308.699413 -85.65966797 305.78320312 C-85.64888214 304.48632065 -85.64888214 304.48632065 -85.63787842 303.16323853 C-85.64062775 302.36680939 -85.64337708 301.57038025 -85.64620972 300.74981689 C-85.64436613 300.06031574 -85.64252254 299.37081459 -85.64062309 298.66041946 C-85.78450723 296.62255615 -85.78450723 296.62255615 -86.90175056 294.69709396 C-87.88671875 292.70019531 -87.88671875 292.70019531 -87.88671875 288.70019531 C-86.5821875 288.71179688 -85.27765625 288.72339844 -83.93359375 288.73535156 C-74.52446154 288.79296584 -65.24727085 288.76562401 -55.88671875 287.70019531 C-56.64994362 293.29717772 -56.64994362 293.29717772 -57.91159058 295.44464111 C-59.28174815 298.61393184 -59.1492649 301.64813665 -59.11376953 305.0390625 C-59.11406158 305.7711644 -59.11435364 306.5032663 -59.11465454 307.2575531 C-59.11326422 309.6708472 -59.09771723 312.08383032 -59.08203125 314.49707031 C-59.07830006 316.17287019 -59.07545359 317.84867226 -59.07345581 319.5244751 C-59.06582772 323.9303797 -59.04618631 328.33615199 -59.02404785 332.74200439 C-59.00357168 337.23976858 -58.9944503 341.73755418 -58.984375 346.23535156 C-58.96293964 355.05702421 -58.92881362 363.87859875 -58.88671875 372.70019531 C-57.57011977 364.46901747 -56.26542086 356.23607313 -54.97520447 348.00072289 C-54.37552092 344.17533826 -53.77200409 340.35064706 -53.15917969 336.52734375 C-52.56612964 332.82645011 -51.9838636 329.1239961 -51.40853882 325.42030716 C-51.18902182 324.01899271 -50.96585046 322.61824486 -50.73867798 321.21815109 C-48.8840373 309.76323747 -47.69721275 298.1951018 -49.88671875 286.70019531 C-42.52850979 287.46138934 -42.52850979 287.46138934 -39.19921875 288.70019531 C-34.94831067 289.98348832 -30.92823684 290.15614199 -26.51171875 290.32519531 C-25.68027344 290.36386719 -24.84882813 290.40253906 -23.9921875 290.44238281 C-21.95736719 290.53593777 -19.92207459 290.61912244 -17.88671875 290.70019531 C-18.34633622 293.73367063 -19.06801175 296.10284471 -20.33618164 298.91943359 C-26.14913541 312.28165814 -26.21309252 329.4907976 -27.94921875 343.82519531 C-28.33441621 346.97222703 -28.7208841 350.1191006 -29.10760498 353.26594543 C-29.35647138 355.29181996 -29.6047333 357.31776885 -29.85235596 359.34379578 C-30.68202181 366.1129926 -31.5604653 372.87366565 -32.49145508 379.62963867 C-33.0936901 384.30802647 -33.51526942 388.99842876 -33.88671875 393.70019531 C10.05856537 387.87612151 47.85756651 374.27480075 80.859375 343.76269531 C82.85345815 341.93795371 84.90051626 340.22749202 86.98828125 338.51269531 C109.96480953 318.30442345 127.81870642 286.14365859 135.140625 256.66113281 C135.46160156 255.68402344 135.78257812 254.70691406 136.11328125 253.70019531 C137.10328125 253.37019531 138.09328125 253.04019531 139.11328125 252.70019531 C140.55525751 251.14292673 140.55525751 251.14292673 141.80078125 249.26269531 C142.23777344 248.64523437 142.67476563 248.02777344 143.125 247.39160156 C144.28144485 245.73888426 144.28144485 245.73888426 144.11328125 243.70019531 C143.45328125 243.37019531 142.79328125 243.04019531 142.11328125 242.70019531 C142.25765625 241.58386719 142.40203125 240.46753906 142.55078125 239.31738281 C148.48267782 190.68110372 138.65770124 138.39245541 108.046875 99.04394531 C105.78036247 96.22195475 103.45849652 93.45710981 101.11328125 90.70019531 C100.11578904 89.51538062 99.11839824 88.33048053 98.12109375 87.14550781 C69.83435268 53.67869364 30.43058345 30.58942253 -12.99389648 24.14233398 C-14.974007 23.83969409 -16.95017527 23.51039317 -18.92211914 23.15844727 C-27.56680309 21.6645426 -36.07484712 21.34039458 -44.82421875 21.38769531 C-45.54460327 21.38985046 -46.26498779 21.39200562 -47.00720215 21.39422607 C-96.76147047 21.63188383 -143.03777718 41.5301298 -178.88671875 75.70019531 C-180.16675781 76.88355469 -180.16675781 76.88355469 -181.47265625 78.09082031 C-189.29705459 85.54497899 -196.1919736 94.25785677 -201.578125 103.64941406 C-202.00996094 104.32617188 -202.44179687 105.00292969 -202.88671875 105.70019531 C-203.54671875 105.70019531 -204.20671875 105.70019531 -204.88671875 105.70019531 C-204.53803795 89.66087844 -184.15661251 74.82764357 -173.43457031 64.23193359 C-171.24320424 62.06337985 -169.06466457 59.88221968 -166.88671875 57.70019531 C-171.92209326 60.21788257 -176.13007944 65.2815613 -180.22216797 69.13525391 C-181.65644913 70.4837054 -183.1007298 71.82150655 -184.546875 73.15722656 C-206.77874385 94.37691277 -220.77257448 123.75187936 -229.88671875 152.70019531 C-230.098125 153.36809082 -230.30953125 154.03598633 -230.52734375 154.72412109 C-237.89206034 178.752753 -240.62644434 209.25946261 -234.32421875 233.89941406 C-233.61651637 236.81236761 -233.82940196 239.71972249 -233.88671875 242.70019531 C-234.54671875 242.70019531 -235.20671875 242.70019531 -235.88671875 242.70019531 C-241.87812033 233.16842007 -241.17534036 220.60466359 -241.08203125 209.74316406 C-241.07920135 208.47418777 -241.07637146 207.20521149 -241.07345581 205.89778137 C-241.06424862 202.57205054 -241.04637508 199.24661067 -241.02404785 195.92095947 C-241.00335393 192.50820387 -240.99440449 189.09541784 -240.984375 185.68261719 C-240.96247191 179.0217317 -240.92911443 172.36098024 -240.88671875 165.70019531 C-239.89671875 165.37019531 -238.90671875 165.04019531 -237.88671875 164.70019531 C-236.8678113 162.73475269 -236.8678113 162.73475269 -236.16015625 160.27441406 C-235.8554541 159.34274414 -235.55075195 158.41107422 -235.23681641 157.45117188 C-234.91503418 156.44022461 -234.59325195 155.42927734 -234.26171875 154.38769531 C-224.65452751 125.58847431 -211.00488523 97.77827845 -189.88671875 75.70019531 C-185.24734175 70.84109964 -185.24734175 70.84109964 -182.88671875 64.70019531 C-196.28340071 74.61238676 -205.97751076 84.93323581 -215.40429688 98.57324219 C-220.52085945 105.91439719 -225.9507521 113.0032073 -231.88671875 119.70019531 C-232.87671875 119.20519531 -232.87671875 119.20519531 -233.88671875 118.70019531 C-233.42523438 117.63027344 -232.96375 116.56035156 -232.48828125 115.45800781 C-231.82836437 113.91419081 -231.16961722 112.36987354 -230.51171875 110.82519531 C-230.1552124 109.98964111 -229.79870605 109.15408691 -229.43139648 108.29321289 C-227.31841138 103.28197794 -225.32323588 98.24587359 -223.4453125 93.14160156 C-216.61825501 74.59700189 -208.91778636 60.69650798 -194.88671875 46.70019531 C-193.83097656 45.62705078 -193.83097656 45.62705078 -192.75390625 44.53222656 C-185.35336266 37.49445472 -176.41855826 32.24254416 -167.88671875 26.70019531 C-164.45802257 24.46022163 -161.21085516 22.20336646 -158.07421875 19.57519531 C-145.47813177 9.70719485 -131.13138072 1.40495288 -114.88671875 0.70019531 C-114.88671875 1.69019531 -114.88671875 2.68019531 -114.88671875 3.70019531 C-113.91992188 3.43464844 -112.953125 3.16910156 -111.95703125 2.89550781 C-110.6419741 2.53856373 -109.3268672 2.18180287 -108.01171875 1.82519531 C-107.38007813 1.65117188 -106.7484375 1.47714844 -106.09765625 1.29785156 C-100.73780711 -0.14930771 -95.33976502 -1.26453787 -89.88671875 -2.29980469 C-89.16226563 -2.44434082 -88.4378125 -2.58887695 -87.69140625 -2.73779297 C-58.70204917 -8.30811635 -28.53991814 -6.93375802 0 0 Z " fill="#4E7133" transform="translate(298.88671875,43.2998046875)"/>
<path d="M0 0 C0.57854736 0.08564209 1.15709473 0.17128418 1.75317383 0.25952148 C16.83022698 2.52608417 16.83022698 2.52608417 32 4 C31.58604814 6.89766304 31.07830378 8.87330158 29.52734375 11.3828125 C22.77776774 22.94858213 23.48113951 42.12236808 21.8533783 55.19247437 C21.24343134 60.0841485 20.61815331 64.97366425 19.98471069 69.86235046 C19.51701979 73.47694689 19.0542457 77.09216404 18.59222412 80.70748901 C18.36603908 82.47051812 18.13808375 84.23332112 17.90826416 85.99588013 C17.58450192 88.48357675 17.26803535 90.97210688 16.953125 93.4609375 C16.85645538 94.19105545 16.75978577 94.9211734 16.66018677 95.67341614 C15.31242929 105.44720708 15.31242929 105.44720708 17.5625 114.8125 C19 118 19 118 18.75 120.375 C18 122 18 122 17 123 C5.57589842 123.99457948 -7.51558564 124.24220718 -18 119 C-18 116.69 -18 114.38 -18 112 C-17.37867188 111.84273438 -16.75734375 111.68546875 -16.1171875 111.5234375 C-13.30320554 109.49861653 -13.12925029 107.49277005 -12.53076172 104.1862793 C-12.39686035 103.34105713 -12.26295898 102.49583496 -12.125 101.625 C-11.96918457 100.72885986 -11.81336914 99.83271973 -11.65283203 98.90942383 C-11.29472576 96.82889127 -10.94568876 94.74678649 -10.60351562 92.66357422 C-10.04381956 89.26600172 -9.46641815 85.87207554 -8.88272095 82.47857666 C-8.20758685 78.54921658 -7.54064559 74.61847712 -6.875 70.6875 C-6.74675842 69.93180725 -6.61851685 69.1761145 -6.48638916 68.39752197 C-3.62387562 51.44885165 -1.70164457 34.67058873 -0.875 17.5 C-0.78829915 15.79033718 -0.70106221 14.08070146 -0.61328125 12.37109375 C-0.40270205 8.24768058 -0.19927843 4.12397412 0 0 Z " fill="#4F7234" transform="translate(267,206)"/>
<path d="M0 0 C10.56 0 21.12 0 32 0 C31 7 31 7 30 9 C29.88037335 11.96753783 29.82158522 14.91229218 29.80712891 17.88085938 C29.79895142 18.80143127 29.79077393 19.72200317 29.78234863 20.67047119 C29.75746534 23.72822416 29.74096639 26.78593043 29.7265625 29.84375 C29.72123882 30.88856033 29.71591515 31.93337067 29.71043015 33.00984192 C29.68367911 38.54561632 29.66431504 44.08136808 29.64990234 49.6171875 C29.63329765 55.32231678 29.58856028 61.02686355 29.5375309 66.73177338 C29.50378017 71.12773256 29.492316 75.52355523 29.48667526 79.91963196 C29.47997878 82.02147342 29.46479874 84.12330642 29.44078445 86.22502136 C28.87397728 100.34712662 28.87397728 100.34712662 33.9246521 113.1920166 C35 115 35 115 35 119 C28.53704479 122.72862801 21.16971059 122.18272626 13.9375 122.1875 C12.46700195 122.20586914 12.46700195 122.20586914 10.96679688 122.22460938 C10.01740234 122.22654297 9.06800781 122.22847656 8.08984375 122.23046875 C7.23253662 122.23457764 6.37522949 122.23868652 5.49194336 122.24291992 C2.69884992 121.97064325 0.54691741 121.15048737 -2 120 C-2.25 116.8125 -2.25 116.8125 -2 113 C-1.3503125 112.34386719 -0.700625 111.68773437 -0.03125 111.01171875 C3.15208709 106.29180933 2.68379943 101.57816793 2.75 96 C2.79012207 94.127677 2.79012207 94.127677 2.83105469 92.2175293 C2.90243036 88.62037641 2.94131939 85.02340316 2.97460938 81.42572021 C3.00128837 78.87691447 3.03879359 76.32842572 3.078125 73.77978516 C3.44581187 48.93046637 2.61464725 24.7302052 0 0 Z " fill="#4E7133" transform="translate(211,206)"/>
<path d="M0 0 C6.453125 0.75919118 6.453125 0.75919118 9.32421875 2.0234375 C13.40679431 3.51342858 17.49750497 3.47054828 21.8125 3.625 C22.69615234 3.66367188 23.57980469 3.70234375 24.49023438 3.7421875 C26.65982972 3.83600784 28.82988547 3.91907326 31 4 C31.37746534 8.52958407 31.37746534 8.52958407 29.58422852 10.7644043 C23.21973876 19.74570075 23.7930787 36.97118461 22.5625 47.6875 C22.13714688 51.3221344 21.70663388 54.95613626 21.2734375 58.58984375 C21.16720566 59.4825296 21.06097382 60.37521545 20.95152283 61.29495239 C19.87650459 70.21887114 18.59364675 79.10820335 17.16821289 87.9831543 C15.44456302 99.24295761 15.50166428 109.86902211 18 121 C13.26616896 123.7972638 9.28268561 124.51144394 3.875 124.4375 C3.13306396 124.43355225 2.39112793 124.42960449 1.62670898 124.42553711 C-5.77916519 124.23461877 -12.37593191 122.31203404 -19 119 C-18.74695405 114.78256744 -18.59298318 112.61273724 -15.59619141 109.51611328 C-11.71308471 105.04926364 -11.45999098 99.54654506 -10.6484375 93.8671875 C-10.46286285 92.68013214 -10.27728821 91.49307678 -10.08609009 90.27005005 C-9.49715526 86.47428132 -8.93571539 82.67502897 -8.375 78.875 C-7.99138776 76.37342054 -7.60598795 73.87211452 -7.21875 71.37109375 C-6.29146048 65.35307491 -5.38688578 59.33195633 -4.49255371 53.30895996 C-4.03137335 50.21076514 -3.56450683 47.11350257 -3.09472656 44.01660156 C-2.95733063 43.10911163 -2.81993469 42.2016217 -2.67837524 41.26663208 C-2.42994923 39.6258364 -2.18111081 37.98510307 -1.93173218 36.3444519 C-0.39804048 26.42152586 -0.39804048 26.42152586 0.09765625 16.40625 C0.09282227 14.95605469 0.09282227 14.95605469 0.08789062 13.4765625 C0.07951172 12.49429688 0.07113281 11.51203125 0.0625 10.5 C0.05798828 9.48679687 0.05347656 8.47359375 0.04882812 7.4296875 C0.03714593 4.95306173 0.02076582 2.47656343 0 0 Z " fill="#4F7234" transform="translate(285,82)"/>
<path d="M0 0 C-10.66976045 15.69082419 -25.71177327 29.16195937 -44 35 C-44.95712891 35.33451172 -44.95712891 35.33451172 -45.93359375 35.67578125 C-52.1559454 37.57741471 -58.55794075 37.17676382 -65 37 C-62.60587797 35.40391865 -60.30815721 34.07208548 -57.76171875 32.7578125 C-56.94123047 32.33113281 -56.12074219 31.90445312 -55.27539062 31.46484375 C-53.56256099 30.57805045 -51.8490286 29.69261307 -50.13476562 28.80859375 C-45.56375091 26.42837811 -41.22016687 23.96031281 -37 21 C-45.69199085 24.07545975 -53.98363065 27.19881564 -61.9609375 31.8984375 C-64 33 -64 33 -66 33 C-63.46785889 23.99683162 -53.97204438 15.89356681 -46.140625 11.3359375 C-32.10433055 4.1040396 -15.87475424 -0.33320324 0 0 Z " fill="#4F7234" transform="translate(358,241)"/>
<path d="M0 0 C19.29314252 2.07677059 37.42419224 5.22292917 51.0703125 20.28515625 C55 25.32063953 55 25.32063953 55 28 C51.94020441 26.79073947 48.89806614 25.54381257 45.86328125 24.2734375 C45.12142578 23.9640625 44.37957031 23.6546875 43.61523438 23.3359375 C42.06731878 22.68998799 40.5204569 22.04150817 38.97460938 21.390625 C38.23662109 21.08382813 37.49863281 20.77703125 36.73828125 20.4609375 C36.06837158 20.18040527 35.39846191 19.89987305 34.70825195 19.61083984 C32.98849307 18.88776568 32.98849307 18.88776568 31 19 C34.08297412 20.62568217 37.16644189 22.25042584 40.25 23.875 C41.12269531 24.33519531 41.99539062 24.79539062 42.89453125 25.26953125 C43.73886719 25.71425781 44.58320313 26.15898437 45.453125 26.6171875 C46.22817383 27.02565918 47.00322266 27.43413086 47.80175781 27.85498047 C49.85731347 28.92567749 51.923735 29.97013947 54 31 C54 31.33 54 31.66 54 32 C37.48680333 33.31521035 23.68326881 24.60371463 11.484375 14.2734375 C6.79390764 9.98121737 2.78576592 5.73409052 0 0 Z " fill="#517436" transform="translate(148,309)"/>
<path d="M0 0 C2.26274788 0.35355436 3.95088852 0.97544426 6 2 C3.76921156 7.75885794 1.0719104 13.29255726 -1.59521484 18.85791016 C-2.50264772 20.75553692 -3.40168052 22.65700796 -4.30078125 24.55859375 C-4.87708806 25.76326787 -5.4538934 26.96770365 -6.03125 28.171875 C-6.55267578 29.2659668 -7.07410156 30.36005859 -7.61132812 31.48730469 C-9 34 -9 34 -11 35 C-11.66 32.36 -12.32 29.72 -13 27 C-22.30172374 44.35706265 -27.71055795 61.25117699 -29 81 C-32.10507173 78.61243489 -32.93764438 77.36846505 -33.6015625 73.4453125 C-33.64078565 72.00572138 -33.64633053 70.56496738 -33.625 69.125 C-33.61662109 68.34342529 -33.60824219 67.56185059 -33.59960938 66.7565918 C-33.02466957 51.17969877 -27.86481882 34.86654878 -19 22 C-16.7578125 20.10546875 -16.7578125 20.10546875 -15 19 C-13.68 19.66 -12.36 20.32 -11 21 C-10.77957031 20.07380859 -10.77957031 20.07380859 -10.5546875 19.12890625 C-8.58861291 11.70527978 -5.47364915 5.47364915 0 0 Z " fill="#537538" transform="translate(70,129)"/>
<path d="M0 0 C0.66 0.66 1.32 1.32 2 2 C1.41734375 2.53625 0.8346875 3.0725 0.234375 3.625 C-22.39393608 25.25709612 -36.70060566 54.46329338 -46 84 C-46.21140625 84.66789551 -46.4228125 85.33579102 -46.640625 86.02392578 C-54.00534159 110.05255769 -56.73972559 140.5592673 -50.4375 165.19921875 C-49.72979762 168.1121723 -49.94268321 171.01952717 -50 174 C-50.66 174 -51.32 174 -52 174 C-57.99140158 164.46822475 -57.28862161 151.90446828 -57.1953125 141.04296875 C-57.1924826 139.77399246 -57.18965271 138.50501617 -57.18673706 137.19758606 C-57.17752987 133.87185523 -57.15965633 130.54641536 -57.1373291 127.22076416 C-57.11663518 123.80800856 -57.10768574 120.39522253 -57.09765625 116.98242188 C-57.07575316 110.32153639 -57.04239568 103.66078493 -57 97 C-55.515 96.505 -55.515 96.505 -54 96 C-52.98109255 94.03455738 -52.98109255 94.03455738 -52.2734375 91.57421875 C-51.96873535 90.64254883 -51.6640332 89.71087891 -51.35009766 88.75097656 C-51.02831543 87.7400293 -50.7065332 86.72908203 -50.375 85.6875 C-40.75357633 56.84561479 -27.08369586 29.150759 -6 7 C-3.96989817 4.69030331 -1.98404772 2.3495302 0 0 Z " fill="#58793D" transform="translate(115,112)"/>
<path d="M0 0 C1.03511719 -0.01224609 2.07023437 -0.02449219 3.13671875 -0.03710938 C4.12285156 -0.03904297 5.10898438 -0.04097656 6.125 -0.04296875 C7.45917969 -0.04913208 7.45917969 -0.04913208 8.8203125 -0.05541992 C11 0.1875 11 0.1875 13 2.1875 C10.46002102 4.72747898 9.38680388 4.5008781 5.85546875 4.6796875 C4.26847168 4.7734668 4.26847168 4.7734668 2.64941406 4.86914062 C1.50698242 4.93294922 0.36455078 4.99675781 -0.8125 5.0625 C-31.24270057 7.17374582 -58.86762912 15.96065128 -85.94921875 29.71630859 C-87.09390625 30.29719238 -88.23859375 30.87807617 -89.41796875 31.4765625 C-90.93040161 32.26087646 -90.93040161 32.26087646 -92.47338867 33.06103516 C-95 34.1875 -95 34.1875 -98 34.1875 C-96.5939834 29.96945021 -93.57156682 28.70493468 -89.9375 26.5 C-89.21651123 26.05938232 -88.49552246 25.61876465 -87.75268555 25.16479492 C-61.17888249 9.15693248 -31.10744357 0.01996627 0 0 Z " fill="#F2EDD7" transform="translate(243,57.8125)"/>
<path d="M0 0 C-0.63550483 12.71009652 -5.62587681 22.43653212 -15 31 C-23.79712747 38 -23.79712747 38 -27 38 C-25.43632643 34.47761953 -23.30504111 31.72876006 -20.875 28.75 C-20.15054687 27.85796875 -19.42609375 26.9659375 -18.6796875 26.046875 C-17.84824219 25.03367188 -17.84824219 25.03367188 -17 24 C-20.29468159 26.52649159 -23.12438733 29.0875145 -25.8125 32.25 C-26.41707031 32.95640625 -27.02164062 33.6628125 -27.64453125 34.390625 C-28.09183594 34.92171875 -28.53914063 35.4528125 -29 36 C-30.68580139 30.91934341 -28.93855232 26.80393076 -27 22 C-21.80143548 12.20022155 -11.97897966 0 0 0 Z " fill="#517436" transform="translate(321,218)"/>
<path d="M0 0 C0 0.33 0 0.66 0 1 C-0.55647217 1.05945801 -1.11294434 1.11891602 -1.6862793 1.18017578 C-45.53522881 6.04879445 -85.13516289 24.62745554 -117 55 C-117.85335937 55.78890625 -118.70671875 56.5778125 -119.5859375 57.390625 C-127.41033584 64.84478367 -134.30525485 73.55766146 -139.69140625 82.94921875 C-140.12324219 83.62597656 -140.55507812 84.30273438 -141 85 C-141.66 85 -142.32 85 -143 85 C-142.65183358 68.98434459 -122.27679064 54.09094285 -111.54003906 43.53173828 C-110.52962419 42.52676952 -109.53101759 41.50975747 -108.54589844 40.47998047 C-107.39881237 39.28548375 -106.20352621 38.13760869 -105 37 C-104.34 37 -103.68 37 -103 37 C-102.91621094 36.36835937 -102.83242187 35.73671875 -102.74609375 35.0859375 C-102 33 -102 33 -100.28515625 32.1640625 C-99.55167969 31.98617187 -98.81820312 31.80828125 -98.0625 31.625 C-94.4313664 30.59753858 -91.53562581 29.25088205 -88.3515625 27.234375 C-67.81096259 14.63168508 -44.53539466 5.99473376 -21 1 C-19.90171875 0.76410156 -18.8034375 0.52820313 -17.671875 0.28515625 C-11.44690883 -0.91135107 -6.2563502 -1.04272503 0 0 Z " fill="#58793D" transform="translate(237,64)"/>
<path d="M0 0 C9.69726462 2.20079764 16.10821003 7.67609388 21.5 15.9375 C24.15830007 20.67397388 24.8259348 24.60397882 25 30 C24.278125 29.2575 23.55625 28.515 22.8125 27.75 C19.74888236 24.66345325 19.74888236 24.66345325 15 21 C17.64 24.3 20.28 27.6 23 31 C22.34 31.33 21.68 31.66 21 32 C11.87211026 26.46241356 6.30890765 20.77790582 2 11 C1.5875 10.13375 1.175 9.2675 0.75 8.375 C-0.158209 5.49900483 -0.13941222 2.9973627 0 0 Z " fill="#537538" transform="translate(179,290)"/>
<path d="M0 0 C0.33 0 0.66 0 1 0 C4.52902146 27.15934919 2.11767153 56.42559412 -8 82 C-8.33 82 -8.66 82 -9 82 C-8.51020173 77.10201725 -7.90147553 72.27515336 -7.0546875 67.42578125 C-6.01962108 61.28025067 -5.20931967 55.12836484 -4.5 48.9375 C-4.37254395 47.83422363 -4.24508789 46.73094727 -4.11376953 45.59423828 C-3.04998688 36.07385305 -2.29055987 26.54135801 -1.64648438 16.98413086 C-1.26194633 11.28924374 -0.78045656 5.65488698 0 0 Z " fill="#EDE9D2" transform="translate(271,220)"/>
<path d="M0 0 C0.66 0.66 1.32 1.32 2 2 C1.41734375 2.53625 0.8346875 3.0725 0.234375 3.625 C-21.8790649 24.76489223 -42.08792357 58.40833413 -47 89 C-47.99 88.34 -48.98 87.68 -50 87 C-48.6699033 79.95408236 -46.47039318 73.79205862 -43.5625 67.25 C-43.12220459 66.25282959 -42.68190918 65.25565918 -42.22827148 64.22827148 C-32.75177812 43.06783497 -22.04046099 23.85228188 -6 7 C-3.96989817 4.69030331 -1.98404772 2.3495302 0 0 Z " fill="#628147" transform="translate(115,112)"/>
<path d="M0 0 C0.66 0.33 1.32 0.66 2 1 C1.84007568 1.92272705 1.68015137 2.8454541 1.51538086 3.79614258 C0.78491675 8.93561435 0.80678151 14.07905061 0.75390625 19.26171875 C0.72099551 21.45378045 0.68778344 23.64583764 0.65429688 25.83789062 C0.606748 29.27446681 0.56223281 32.71102121 0.52319336 36.14770508 C0.48354945 39.47755629 0.43202129 42.80705902 0.37890625 46.13671875 C0.3704921 47.16592941 0.36207794 48.19514008 0.35340881 49.25553894 C0.32844582 50.69272026 0.32844582 50.69272026 0.30297852 52.15893555 C0.29267105 52.9994194 0.28236359 53.83990326 0.27174377 54.70585632 C-0.02276976 57.19222926 -0.75466125 58.84531894 -2 61 C-4.04819785 57.92770322 -4.25302656 57.27944232 -4.2746582 53.81079102 C-4.28419022 52.96883682 -4.29372223 52.12688263 -4.30354309 51.25941467 C-4.30263168 50.35009689 -4.30172028 49.44077911 -4.30078125 48.50390625 C-4.30506638 47.5599852 -4.3093515 46.61606415 -4.31376648 45.64353943 C-4.31951453 43.64037883 -4.32000656 41.63719736 -4.31567383 39.6340332 C-4.31254418 36.60525512 -4.33586062 33.57748322 -4.36132812 30.54882812 C-4.43104025 8.8620805 -4.43104025 8.8620805 0 0 Z " fill="#597A3E" transform="translate(49,198)"/>
<path d="M0 0 C5.60256499 5.60256499 4.26982659 19.03738038 4.328125 26.58129883 C4.32296875 27.77134521 4.3178125 28.9613916 4.3125 30.1875 C4.31121094 31.43748779 4.30992187 32.68747559 4.30859375 33.9753418 C4.20336342 44.2070181 3.09288849 53.99649131 1 64 C0.67 64 0.34 64 0 64 C0 42.88 0 21.76 0 0 Z " fill="#E7E5CC" transform="translate(219,357)"/>
<path d="M0 0 C0.33 0 0.66 0 1 0 C2.1843093 21.00034169 2.10429192 41.97474834 2 63 C1.67 63 1.34 63 1 63 C-1.75807928 50.89658413 -2.18100449 38.8804467 -2.1875 26.5 C-2.19974609 25.27152344 -2.21199219 24.04304688 -2.22460938 22.77734375 C-2.2370077 14.98293127 -1.55617499 7.63892356 0 0 Z " fill="#ECE8D1" transform="translate(234,227)"/>
<path d="M0 0 C0.33 0 0.66 0 1 0 C1.14842465 5.57479238 0.58178886 10.83481496 -0.2421875 16.34375 C-0.37062042 17.23050415 -0.49905334 18.1172583 -0.63137817 19.03088379 C-1.04127084 21.85462324 -1.45788134 24.67731982 -1.875 27.5 C-2.28238621 30.28630851 -2.68835903 33.07281996 -3.09405518 35.859375 C-3.35778223 37.67065384 -3.6220573 39.48185298 -3.88690186 41.29296875 C-4.98923337 48.8538077 -6.01694965 56.42274749 -7 64 C-7.33 64 -7.66 64 -8 64 C-8.58668508 42.11881937 -7.23747803 20.79702185 0 0 Z " fill="#E0DFC5" transform="translate(303,110)"/>
<path d="M0 0 C0.97569387 3.15215235 0.99351648 5.58001198 0.59448242 8.84448242 C0.48073776 9.8019487 0.3669931 10.75941498 0.24980164 11.74589539 C0.11967178 12.7720546 -0.01045807 13.79821381 -0.14453125 14.85546875 C-0.27437912 15.91284744 -0.40422699 16.97022614 -0.53800964 18.05964661 C-0.81436312 20.29177199 -1.0945116 22.52343032 -1.37817383 24.75463867 C-1.81197208 28.18332738 -2.22798079 31.61386476 -2.64257812 35.04492188 C-2.9129903 37.21107162 -3.18443895 39.37709228 -3.45703125 41.54296875 C-3.58108841 42.57520065 -3.70514557 43.60743256 -3.83296204 44.67094421 C-3.95616318 45.61895401 -4.07936432 46.56696381 -4.20629883 47.54370117 C-4.31146317 48.38213058 -4.4166275 49.22056 -4.52497864 50.08439636 C-4.68173569 50.71654556 -4.83849274 51.34869476 -5 52 C-5.99 52.495 -5.99 52.495 -7 53 C-7.67671052 34.7038297 -7.39338719 17.06697791 0 0 Z " fill="#ECE8D1" transform="translate(269,353)"/>
<path d="M0 0 C0 0.33 0 0.66 0 1 C-0.83470825 1.08918701 -0.83470825 1.08918701 -1.6862793 1.18017578 C-25.22112013 3.79328662 -46.35193332 10.64554821 -68 20 C-68.33 19.01 -68.66 18.02 -69 17 C-19.45736434 -3.89147287 -19.45736434 -3.89147287 0 0 Z " fill="#69864E" transform="translate(237,64)"/>
<path d="M0 0 C0.495 0.99 0.495 0.99 1 2 C0.34 2 -0.32 2 -1 2 C-1.24234375 2.58007812 -1.4846875 3.16015625 -1.734375 3.7578125 C-3.23697585 6.41982759 -4.92202095 7.89390525 -7.25 9.875 C-25.27022535 25.32980657 -25.27022535 25.32980657 -38 45 C-38.16724737 48.16695956 -38.16724737 48.16695956 -38 51 C-38.66 51 -39.32 51 -40 51 C-41.23828125 48.8828125 -41.23828125 48.8828125 -42 46 C-40.54296875 43.0546875 -40.54296875 43.0546875 -38.1875 39.875 C-37.55726929 39.01805542 -37.55726929 39.01805542 -36.91430664 38.14379883 C-35.62913995 36.4133321 -34.31767075 34.70578652 -33 33 C-31.98679687 31.64841797 -31.98679687 31.64841797 -30.953125 30.26953125 C-26.3370781 24.35633939 -21.21157047 19.01265106 -15.9375 13.6875 C-15.2767749 13.0174292 -14.6160498 12.3473584 -13.93530273 11.65698242 C-9.57694199 7.32670181 -5.01234507 3.55148566 0 0 Z " fill="#F0EBD5" transform="translate(133,99)"/>
<path d="M0 0 C-0.94476572 11.52614174 -4.41095024 21.44384763 -9 32 C-9.94095791 34.24855609 -10.87857052 36.49851561 -11.8125 38.75 C-12.54166667 40.5 -13.27083333 42.25 -14 44 C-15.50619242 41.64377152 -16.10956529 40.53741106 -15.5402832 37.74511719 C-15.21374756 36.93719727 -14.88721191 36.12927734 -14.55078125 35.296875 C-14.19693359 34.39839844 -13.84308594 33.49992187 -13.47851562 32.57421875 C-13.09373047 31.64222656 -12.70894531 30.71023438 -12.3125 29.75 C-11.57941286 27.911464 -10.84633974 26.07292242 -10.11328125 24.234375 C-9.57598389 22.90442505 -9.57598389 22.90442505 -9.02783203 21.54760742 C-5.91792782 14.33792958 -5.91792782 14.33792958 -4.5 6.6875 C-4 3 -4 3 -2.5 1 C-1 0 -1 0 0 0 Z " fill="#EBE7D0" transform="translate(456,303)"/>
<path d="M0 0 C3.28236138 4.92354207 6.09821652 9.95980913 5 16 C2.5 17.875 2.5 17.875 0 19 C-2.39763185 16.60236815 -2.34280586 15.66726502 -2.625 12.375 C-2.69976562 11.55773437 -2.77453125 10.74046875 -2.8515625 9.8984375 C-2.90054688 9.27195313 -2.94953125 8.64546875 -3 8 C-2.01 7.67 -1.02 7.34 0 7 C0 4.69 0 2.38 0 0 Z " fill="#56773B" transform="translate(35,235)"/>
<path d="M0 0 C0.66 0 1.32 0 2 0 C1.46698301 4.08646362 0.82457756 8.13708776 0.0625 12.1875 C-0.09089844 13.00605469 -0.24429688 13.82460937 -0.40234375 14.66796875 C-0.99964374 16.9986099 -1.84465006 18.89716643 -3 21 C-3.66 20.67 -4.32 20.34 -5 20 C-4.74378181 12.31345427 -3.96313504 6.64783942 0 0 Z " fill="#5E7D43" transform="translate(67,172)"/>
<path d="M0 0 C0 4.14411848 -1.76386635 5.39674972 -4.4375 8.5 C-7.85918092 12.38360653 -7.85918092 12.38360653 -10 17 C-11.65 17.33 -13.3 17.66 -15 18 C-14.67 13.71 -14.34 9.42 -14 5 C-12 7 -12 7 -11.875 10.125 C-11.91625 11.07375 -11.9575 12.0225 -12 13 C-11.55269531 12.48050781 -11.10539062 11.96101562 -10.64453125 11.42578125 C-7.21798969 7.47320346 -3.75553321 3.64172918 0 0 Z " fill="#DEDEC3" transform="translate(304,240)"/>
<path d="M0 0 C0 0.33 0 0.66 0 1 C-0.63502441 1.08564209 -1.27004883 1.17128418 -1.92431641 1.25952148 C-4.82467419 1.65122583 -7.72483775 2.04435064 -10.625 2.4375 C-11.62402344 2.57220703 -12.62304688 2.70691406 -13.65234375 2.84570312 C-14.62558594 2.97783203 -15.59882813 3.10996094 -16.6015625 3.24609375 C-17.54161133 3.37226074 -18.48166016 3.49842773 -19.45019531 3.62841797 C-21.50599728 3.92800918 -23.54936401 4.31223567 -25.5859375 4.72265625 C-26.38257813 4.81417969 -27.17921875 4.90570313 -28 5 C-28.66 4.34 -29.32 3.68 -30 3 C-26.69191052 2.29005712 -23.37812399 1.61129884 -20.0625 0.9375 C-19.13630859 0.73833984 -18.21011719 0.53917969 -17.25585938 0.33398438 C-11.14076612 -0.88903428 -6.16090317 -1.00470113 0 0 Z " fill="#76905B" transform="translate(237,64)"/>
<path d="M0 0 C0.99 0.33 1.98 0.66 3 1 C2.61328125 1.42410156 2.2265625 1.84820312 1.828125 2.28515625 C-4.61754617 9.43112083 -4.61754617 9.43112083 -7.25 18.4375 C-7.1675 19.283125 -7.085 20.12875 -7 21 C-7.66 21 -8.32 21 -9 21 C-10.265625 18.9140625 -10.265625 18.9140625 -11 16 C-9.68345999 13.50582099 -8.45139351 11.57326064 -6.75 9.375 C-6.32847656 8.80265625 -5.90695313 8.2303125 -5.47265625 7.640625 C-4.32620644 6.08550381 -3.16377181 4.54220111 -2 3 C-1.34 2.01 -0.68 1.02 0 0 Z " fill="#E3E1C8" transform="translate(102,129)"/>
<path d="M0 0 C7.48291572 6.15034169 7.48291572 6.15034169 10 10 C10.66 9.67 11.32 9.34 12 9 C11.67 10.32 11.34 11.64 11 13 C10.01 13 9.02 13 8 13 C6.59431196 11.05017465 5.2704964 9.04049422 4 7 C3.2575 6.0925 2.515 5.185 1.75 4.25 C0 2 0 2 0 0 Z " fill="#D9DABE" transform="translate(193,309)"/>
<path d="M0 0 C-0.11458693 1.43836751 -0.24209116 2.87570966 -0.375 4.3125 C-0.44460938 5.11300781 -0.51421875 5.91351563 -0.5859375 6.73828125 C-1 9 -1 9 -3 12 C-4 11 -4 11 -4.25 7.125 C-4.21572708 3.30014202 -4.21572708 3.30014202 -2.5625 1 C-1 0 -1 0 0 0 Z " fill="#EEE9D3" transform="translate(456,303)"/>
<path d="M0 0 C-3.82941989 3.32993034 -8.37522222 5.05324525 -13 7 C-13.33 6.01 -13.66 5.02 -14 4 C-4.58997722 -0.59225513 -4.58997722 -0.59225513 0 0 Z " fill="#638148" transform="translate(182,77)"/>
<path d="M0 0 C10.55808656 3.07517084 10.55808656 3.07517084 15 5 C15 5.33 15 5.66 15 6 C8.99666876 6.6319296 4.36595205 4.37544123 -1 2 C-0.67 1.34 -0.34 0.68 0 0 Z " fill="#E6E4CB" transform="translate(175,426)"/>
<path d="M0 0 C2.38105522 3.57158283 2.39782115 4.78309579 2 9 C1.14309936 11.74901652 0.10335962 14.33354759 -1 17 C-1.33 17 -1.66 17 -2 17 C-1.38273804 11.32644329 -0.72054048 5.66138945 0 0 Z " fill="#CBD0B0" transform="translate(264,285)"/>
<path d="M0 0 C3.99824088 3.66505414 6.60168569 7.11112852 9 12 C8.67 12.66 8.34 13.32 8 14 C6.84669053 12.42210402 5.70262073 10.8374518 4.5625 9.25 C3.92441406 8.36828125 3.28632813 7.4865625 2.62890625 6.578125 C1.1724919 4.27300875 0.44068179 2.65650428 0 0 Z " fill="#E3E1C8" transform="translate(429,139)"/>
<path d="M0 0 C0.33 0.99 0.66 1.98 1 3 C-0.21484375 5.04296875 -0.21484375 5.04296875 -1.9375 7.1875 C-2.50339844 7.90292969 -3.06929688 8.61835938 -3.65234375 9.35546875 C-4.09707031 9.89816406 -4.54179687 10.44085938 -5 11 C-6 8 -6 8 -5.29296875 6.2109375 C-4.74576172 5.30214844 -4.74576172 5.30214844 -4.1875 4.375 C-3.83042969 3.76398438 -3.47335937 3.15296875 -3.10546875 2.5234375 C-2 1 -2 1 0 0 Z " fill="#638148" transform="translate(438,356)"/>
<path d="M0 0 C0.33 0 0.66 0 1 0 C1.24887295 2.10192697 1.4734719 4.20673964 1.6875 6.3125 C1.81511719 7.48425781 1.94273437 8.65601563 2.07421875 9.86328125 C2 13 2 13 -1 16 C-0.67 10.72 -0.34 5.44 0 0 Z " fill="#DBDBC0" transform="translate(271,220)"/>
<path d="M0 0 C0.66 0 1.32 0 2 0 C1.67 3.3 1.34 6.6 1 10 C0.01 9.34 -0.98 8.68 -2 8 C-1.125 1.125 -1.125 1.125 0 0 Z " fill="#638148" transform="translate(34,186)"/>
<path d="M0 0 C0.66 0 1.32 0 2 0 C3.5625 2.8125 3.5625 2.8125 5 6 C4.67 6.99 4.34 7.98 4 9 C0.06153846 5.67692308 0.06153846 5.67692308 -0.25 2.25 C-0.1675 1.5075 -0.085 0.765 0 0 Z " fill="#6A864F" transform="translate(33,303)"/>
<path d="M0 0 C0.33 0.66 0.66 1.32 1 2 C0.34 2 -0.32 2 -1 2 C-1.2475 2.598125 -1.495 3.19625 -1.75 3.8125 C-3.19482573 6.34094503 -4.48280545 7.55070617 -7 9 C-7.99 8.67 -8.98 8.34 -10 8 C-6.7 5.36 -3.4 2.72 0 0 Z " fill="#DBDCC0" transform="translate(133,99)"/>
<path d="M0 0 C0 0.66 0 1.32 0 2 C-5.47619048 7 -5.47619048 7 -8 7 C-7.62005832 4.24542282 -7.1926367 3.17979426 -5.125 1.25 C-3 0 -3 0 0 0 Z " fill="#5C7C41" transform="translate(144,57)"/>
<path d="M0 0 C0.66 0.33 1.32 0.66 2 1 C0.515 4.96 0.515 4.96 -1 9 C-1.66 9 -2.32 9 -3 9 C-2.25 2.25 -2.25 2.25 0 0 Z " fill="#67844C" transform="translate(59,139)"/>
<path d="M0 0 C0 0.33 0 0.66 0 1 C-1.95565258 1.38873828 -3.91466504 1.76060833 -5.875 2.125 C-6.96554688 2.33382812 -8.05609375 2.54265625 -9.1796875 2.7578125 C-10.57574219 2.87769531 -10.57574219 2.87769531 -12 3 C-12.66 2.34 -13.32 1.68 -14 1 C-4.58997722 -1.48063781 -4.58997722 -1.48063781 0 0 Z " fill="#7D9462" transform="translate(221,66)"/>
<path d="M0 0 C0.66 0 1.32 0 2 0 C1.67 2.97 1.34 5.94 1 9 C0.01 8.34 -0.98 7.68 -2 7 C-1.34 4.69 -0.68 2.38 0 0 Z " fill="#D6D8BB" transform="translate(451,314)"/>
<path d="M0 0 C-2.98646769 1.99097846 -5.59687262 2.94124926 -9 4 C-9.66 3.34 -10.32 2.68 -11 2 C-9.73392393 1.46770674 -8.46189588 0.94955456 -7.1875 0.4375 C-6.47980469 0.14746094 -5.77210938 -0.14257812 -5.04296875 -0.44140625 C-3 -1 -3 -1 0 0 Z " fill="#718B56" transform="translate(191,74)"/>
<path d="M0 0 C0.66 0.33 1.32 0.66 2 1 C1.67 3.31 1.34 5.62 1 8 C0.01 7.67 -0.98 7.34 -2 7 C-1.34 4.69 -0.68 2.38 0 0 Z " fill="#728D57" transform="translate(49,198)"/>
<path d="M0 0 C0.66 0.33 1.32 0.66 2 1 C1.67 2.98 1.34 4.96 1 7 C-0.32 7.33 -1.64 7.66 -3 8 C-2.01 5.36 -1.02 2.72 0 0 Z " fill="#E2E0C7" transform="translate(66,186)"/>
<path d="M0 0 C0.66 0.66 1.32 1.32 2 2 C-0.97 4.475 -0.97 4.475 -4 7 C-4 4 -4 4 -2 1.8125 C-1.34 1.214375 -0.68 0.61625 0 0 Z " fill="#6C8851" transform="translate(115,112)"/>
</svg>
